<?xml version="1.0" standalone="no"?>
<!DOCTYPE svg PUBLIC "-//W3C//DTD SVG 20010904//EN"
 "http://www.w3.org/TR/2001/REC-SVG-20010904/DTD/svg10.dtd">
<svg version="1.0" xmlns="http://www.w3.org/2000/svg"
 width="260.000000pt" height="260.000000pt" viewBox="0 0 260.000000 260.000000"
 preserveAspectRatio="xMidYMid meet">
<metadata>
Created by potrace 1.11, written by Peter Selinger 2001-2013
</metadata>
<g transform="translate(0.000000,260.000000) scale(0.100000,-0.100000)"
fill="#000000" stroke="none">
<path d="M1631 2590 c-280 -39 -526 -214 -651 -465 -53 -105 -90 -229 -90
-300 0 -24 -3 -56 -6 -72 -6 -30 -6 -30 -93 -36 -221 -14 -458 -145 -597 -330
-105 -140 -162 -296 -171 -469 -22 -409 225 -754 624 -874 120 -36 316 -39
438 -5 362 98 616 402 642 767 l6 84 61 0 c122 0 307 62 423 141 70 48 169
145 218 214 304 427 157 1023 -310 1256 -55 27 -134 58 -176 68 -92 24 -232
33 -318 21z m289 -429 c80 -41 119 -92 134 -173 l7 -38 -95 0 -94 0 -12 34
c-15 46 -48 66 -109 66 -38 0 -56 -5 -75 -22 -63 -58 -30 -110 98 -156 126
-46 172 -70 215 -114 49 -48 65 -93 59 -168 -6 -81 -40 -129 -115 -167 -53
-26 -67 -28 -168 -28 -105 0 -114 2 -177 33 -74 36 -119 83 -137 141 -23 80
-22 81 77 81 l89 0 11 -38 c18 -60 43 -76 122 -80 63 -4 71 -2 94 21 28 28 33
56 14 90 -17 33 -33 42 -160 92 -181 71 -250 148 -234 261 11 84 61 139 160
175 74 28 233 22 296 -10z m-1047 -1044 l37 -21 45 22 c95 46 165 39 226 -24
l34 -35 3 -169 c3 -131 6 -171 18 -181 9 -7 14 -30 14 -60 l0 -49 -84 0 c-67
0 -85 3 -90 16 -3 9 -6 93 -6 188 0 160 -2 175 -21 200 -20 26 -57 34 -93 20
-23 -9 -24 -309 -1 -318 11 -4 15 -20 15 -56 l0 -51 -87 3 -88 3 -6 195 c-3
107 -6 196 -7 197 -1 1 -9 9 -18 17 -19 19 -74 21 -98 3 -17 -12 -18 -27 -14
-156 4 -121 7 -145 21 -153 12 -6 17 -23 17 -58 l0 -50 -110 0 -110 0 0 50 c0
36 5 52 18 59 15 8 17 29 20 150 3 130 2 141 -17 160 -16 16 -21 34 -21 71 l0
50 90 0 c83 0 90 -1 90 -20 0 -24 4 -25 36 -4 56 37 120 38 187 1z"/>
</g>
</svg>
