<?xml version="1.0" standalone="no"?>
<!DOCTYPE svg PUBLIC "-//W3C//DTD SVG 20010904//EN"
 "http://www.w3.org/TR/2001/REC-SVG-20010904/DTD/svg10.dtd">
<svg version="1.0" xmlns="http://www.w3.org/2000/svg"
 width="512.000000pt" height="512.000000pt" viewBox="0 0 512.000000 512.000000"
 preserveAspectRatio="xMidYMid meet">
<metadata>
Created by potrace 1.11, written by Peter Selinger 2001-2013
</metadata>
<g transform="translate(0.000000,512.000000) scale(0.100000,-0.100000)"
fill="#000000" stroke="none">
<path d="M3237 5099 c-360 -41 -706 -204 -964 -453 -322 -310 -503 -699 -520
-1117 l-6 -136 -121 -6 c-301 -14 -624 -127 -876 -305 -122 -86 -316 -280
-402 -402 -352 -497 -406 -1157 -139 -1705 212 -434 611 -765 1072 -889 173
-46 295 -59 494 -53 201 6 310 25 484 83 494 164 890 561 1056 1057 53 159 75
275 82 433 l6 141 126 6 c517 26 1005 307 1298 747 108 161 209 404 248 593
134 664 -147 1349 -710 1729 -327 220 -742 322 -1128 277z m470 -813 c140 -45
238 -125 296 -241 25 -51 47 -135 47 -181 l0 -24 -187 2 -187 3 -8 43 c-16 95
-82 144 -202 150 -74 4 -86 1 -135 -25 -120 -63 -121 -181 -1 -255 25 -16 113
-52 195 -82 284 -101 410 -186 477 -324 32 -64 33 -71 33 -187 0 -110 -2 -124
-27 -175 -37 -76 -109 -144 -193 -186 -107 -52 -181 -67 -330 -68 -158 -1
-254 19 -375 76 -168 81 -279 239 -280 401 l0 37 185 0 185 0 0 -38 c0 -22 12
-61 28 -92 22 -44 37 -59 75 -79 58 -29 186 -40 256 -21 83 22 130 101 111
184 -17 77 -84 121 -306 202 -154 55 -240 97 -314 153 -135 101 -197 244 -170
392 28 155 138 268 317 328 98 33 158 40 298 37 107 -3 144 -8 212 -30z
m-2070 -2041 c28 -8 75 -31 103 -51 l53 -36 36 21 c126 76 269 101 374 65 63
-21 173 -123 187 -172 6 -21 10 -160 10 -329 0 -163 4 -303 10 -317 5 -14 20
-28 35 -32 25 -6 25 -7 25 -115 l0 -109 -174 0 c-171 0 -174 0 -181 23 -4 12
-11 187 -14 389 -6 351 -7 368 -27 395 -32 43 -92 60 -151 45 -26 -7 -53 -18
-60 -24 -10 -8 -13 -74 -13 -291 0 -247 2 -283 17 -299 9 -10 22 -18 30 -18
10 0 13 -25 13 -110 l0 -110 -169 0 c-151 0 -170 2 -177 18 -5 9 -11 181 -14
382 -6 404 -7 410 -70 443 -40 21 -94 18 -153 -6 l-38 -17 3 -279 c3 -258 4
-281 22 -300 11 -12 25 -21 33 -21 10 0 13 -25 13 -110 l0 -110 -215 0 -215 0
0 109 c0 101 2 110 20 116 40 13 45 39 48 290 4 261 -3 311 -45 330 -22 9 -23
15 -23 117 l0 108 175 0 175 0 0 -35 c0 -19 3 -35 7 -35 3 0 28 14 55 31 90
58 195 74 295 44z"/>
</g>
</svg>
